<svg width="21" height="21" viewBox="0 0 21 21" fill="none" xmlns="http://www.w3.org/2000/svg">
<path d="M14.8 11.5C15.55 11.5 16.21 11.09 16.55 10.47L20.13 3.98C20.5 3.32 20.02 2.5 19.26 2.5H4.46L3.52 0.5H0.25V2.5H2.25L5.85 10.09L4.5 12.53C3.77 13.87 4.73 15.5 6.25 15.5H18.25V13.5H6.25L7.35 11.5H14.8ZM5.41 4.5H17.56L14.8 9.5H7.78L5.41 4.5ZM6.25 16.5C5.15 16.5 4.26 17.4 4.26 18.5C4.26 19.6 5.15 20.5 6.25 20.5C7.35 20.5 8.25 19.6 8.25 18.5C8.25 17.4 7.35 16.5 6.25 16.5ZM16.25 16.5C15.15 16.5 14.26 17.4 14.26 18.5C14.26 19.6 15.15 20.5 16.25 20.5C17.35 20.5 18.25 19.6 18.25 18.5C18.25 17.4 17.35 16.5 16.25 16.5Z" fill="white"/>
</svg>
