<!-- icon666.com - MILLIONS vector ICONS FREE --><svg version="1.1" id="Layer_1" xmlns="http://www.w3.org/2000/svg" xmlns:xlink="http://www.w3.org/1999/xlink" x="0px" y="0px" viewBox="0 0 512 512" style="enable-background:new 0 0 512 512;" xml:space="preserve"><g><g><path d="M170,422c-16.542,0-30,13.458-30,30s13.458,30,30,30s30-13.458,30-30S186.542,422,170,422z"></path></g></g><g><g><path d="M396,422c-16.542,0-30,13.458-30,30s13.458,30,30,30s30-13.458,30-30S412.542,422,396,422z"></path></g></g><g><g><path d="M140,332v30h274.147L512,117.895V90H110V30H0v30h80v287c0,41.355,33.645,75,75,75h15h226h60v-30H155 c-24.813,0-45-20.187-45-45V120h368.835l-84.983,212H140z"></path></g></g></svg>